REM DIRINDEX 1\2\6,1\2\7,1\2\8,1\3\9,1\3\10,1\3\11,1\4\12,1\4\13,1\4\14,1\5\15,1\5\16,1\5\17,1\5\18
REM DIRNAME cjc019,folder01,folder02,folder03,folder04,folder05,folder06,folder07,folder08,folder09,folder10,folder11,folder12,folder13,folder14,folder15,folder16,folder17
TITLE ""
FILE "2Q_j_1499-1512.mp3" MP3
  TRACK 01 AUDIO
    TITLE "6:cjc019_0960"
    INDEX 01 00:00:00
  TRACK 02 AUDIO
    TITLE "0:"
    INDEX 01 00:01:21
  TRACK 03 AUDIO
    TITLE "7:cjc019_0961"
    INDEX 01 00:02:00
  TRACK 04 AUDIO
    TITLE "0:"
    INDEX 01 00:05:59
  TRACK 05 AUDIO
    TITLE "8:cjc019_0962"
    INDEX 01 00:06:39
  TRACK 06 AUDIO
    TITLE "0:"
    INDEX 01 00:09:47
  TRACK 07 AUDIO
    TITLE "6:cjc019_0963"
    INDEX 01 00:10:25
  TRACK 08 AUDIO
    TITLE "0:"
    INDEX 01 00:12:18
  TRACK 09 AUDIO
    TITLE "7:cjc019_0964"
    INDEX 01 00:13:02
  TRACK 10 AUDIO
    TITLE "0:"
    INDEX 01 00:15:40
  TRACK 11 AUDIO
    TITLE "8:cjc019_0965"
    INDEX 01 00:16:18
  TRACK 12 AUDIO
    TITLE "0:"
    INDEX 01 00:19:54
  TRACK 13 AUDIO
    TITLE "6:cjc019_0966"
    INDEX 01 00:20:30
  TRACK 14 AUDIO
    TITLE "0:"
    INDEX 01 00:22:66
  TRACK 15 AUDIO
    TITLE "7:cjc019_0967"
    INDEX 01 00:23:42
  TRACK 16 AUDIO
    TITLE "0:"
    INDEX 01 00:28:27
  TRACK 17 AUDIO
    TITLE "8:cjc019_0968"
    INDEX 01 00:29:03
  TRACK 18 AUDIO
    TITLE "0:"
    INDEX 01 00:32:72
  TRACK 19 AUDIO
    TITLE "6:cjc019_0969"
    INDEX 01 00:33:48
  TRACK 20 AUDIO
    TITLE "0:"
    INDEX 01 00:36:17
  TRACK 21 AUDIO
    TITLE "7:cjc019_0970"
    INDEX 01 00:36:74
  TRACK 22 AUDIO
    TITLE "0:"
    INDEX 01 00:39:35
  TRACK 23 AUDIO
    TITLE "8:cjc019_0971"
    INDEX 01 00:40:15
  TRACK 24 AUDIO
    TITLE "0:"
    INDEX 01 00:44:16
  TRACK 25 AUDIO
    TITLE "6:cjc019_0972"
    INDEX 01 00:44:63
  TRACK 26 AUDIO
    TITLE "0:"
    INDEX 01 00:46:45
  TRACK 27 AUDIO
    TITLE "7:cjc019_0973"
    INDEX 01 00:47:25
  TRACK 28 AUDIO
    TITLE "0:"
    INDEX 01 00:51:42
  TRACK 29 AUDIO
    TITLE "8:cjc019_0974"
    INDEX 01 00:52:18
  TRACK 30 AUDIO
    TITLE "0:"
    INDEX 01 00:56:39
  TRACK 31 AUDIO
    TITLE "6:cjc019_0975"
    INDEX 01 00:57:13
  TRACK 32 AUDIO
    TITLE "0:"
    INDEX 01 00:58:42
  TRACK 33 AUDIO
    TITLE "7:cjc019_0976"
    INDEX 01 00:59:22
  TRACK 34 AUDIO
    TITLE "0:"
    INDEX 01 01:01:03
  TRACK 35 AUDIO
    TITLE "8:cjc019_0977"
    INDEX 01 01:01:60
  TRACK 36 AUDIO
    TITLE "0:"
    INDEX 01 01:04:68
  TRACK 37 AUDIO
    TITLE "6:cjc019_0978"
    INDEX 01 01:05:48
  TRACK 38 AUDIO
    TITLE "0:"
    INDEX 01 01:07:39
  TRACK 39 AUDIO
    TITLE "7:cjc019_0979"
    INDEX 01 01:08:21
  TRACK 40 AUDIO
    TITLE "0:"
    INDEX 01 01:12:21
  TRACK 41 AUDIO
    TITLE "8:cjc019_0980"
    INDEX 01 01:13:00
  TRACK 42 AUDIO
    TITLE "0:"
    INDEX 01 01:17:47
  TRACK 43 AUDIO
    TITLE "6:cjc019_0981"
    INDEX 01 01:18:27
  TRACK 44 AUDIO
    TITLE "0:"
    INDEX 01 01:20:02
  TRACK 45 AUDIO
    TITLE "7:cjc019_0982"
    INDEX 01 01:20:55
  TRACK 46 AUDIO
    TITLE "0:"
    INDEX 01 01:23:24
  TRACK 47 AUDIO
    TITLE "8:cjc019_0983"
    INDEX 01 01:24:06
  TRACK 48 AUDIO
    TITLE "0:"
    INDEX 01 01:27:38
  TRACK 49 AUDIO
    TITLE "6:cjc019_0984"
    INDEX 01 01:28:18
  TRACK 50 AUDIO
    TITLE "0:"
    INDEX 01 01:29:33
  TRACK 51 AUDIO
    TITLE "7:cjc019_0985"
    INDEX 01 01:30:17
  TRACK 52 AUDIO
    TITLE "0:"
    INDEX 01 01:34:48
  TRACK 53 AUDIO
    TITLE "8:cjc019_0986"
    INDEX 01 01:35:27
  TRACK 54 AUDIO
    TITLE "0:"
    INDEX 01 01:37:60
  TRACK 55 AUDIO
    TITLE "6:cjc019_0987"
    INDEX 01 01:38:42
  TRACK 56 AUDIO
    TITLE "0:"
    INDEX 01 01:40:15
  TRACK 57 AUDIO
    TITLE "7:cjc019_0988"
    INDEX 01 01:40:72
  TRACK 58 AUDIO
    TITLE "0:"
    INDEX 01 01:43:13
  TRACK 59 AUDIO
    TITLE "8:cjc019_0989"
    INDEX 01 01:43:68
  TRACK 60 AUDIO
    TITLE "0:"
    INDEX 01 01:48:36
  TRACK 61 AUDIO
    TITLE "6:cjc019_0990"
    INDEX 01 01:49:22
  TRACK 62 AUDIO
    TITLE "0:"
    INDEX 01 01:50:39
  TRACK 63 AUDIO
    TITLE "7:cjc019_0991"
    INDEX 01 01:51:23
  TRACK 64 AUDIO
    TITLE "0:"
    INDEX 01 01:55:32
  TRACK 65 AUDIO
    TITLE "8:cjc019_0992"
    INDEX 01 01:56:14
  TRACK 66 AUDIO
    TITLE "0:"
    INDEX 01 02:00:37
  TRACK 67 AUDIO
    TITLE "6:cjc019_0993"
    INDEX 01 02:01:17
  TRACK 68 AUDIO
    TITLE "0:"
    INDEX 01 02:03:20
  TRACK 69 AUDIO
    TITLE "7:cjc019_0994"
    INDEX 01 02:04:08
  TRACK 70 AUDIO
    TITLE "0:"
    INDEX 01 02:05:54
  TRACK 71 AUDIO
    TITLE "8:cjc019_0995"
    INDEX 01 02:06:34
  TRACK 72 AUDIO
    TITLE "0:"
    INDEX 01 02:10:53
  TRACK 73 AUDIO
    TITLE "6:cjc019_0996"
    INDEX 01 02:11:39
  TRACK 74 AUDIO
    TITLE "0:"
    INDEX 01 02:13:22
  TRACK 75 AUDIO
    TITLE "7:cjc019_0997"
    INDEX 01 02:14:04
  TRACK 76 AUDIO
    TITLE "0:"
    INDEX 01 02:16:21
  TRACK 77 AUDIO
    TITLE "8:cjc019_0998"
    INDEX 01 02:16:73
  TRACK 78 AUDIO
    TITLE "0:"
    INDEX 01 02:20:22
  TRACK 79 AUDIO
    TITLE "6:cjc019_0999"
    INDEX 01 02:21:08
  TRACK 80 AUDIO
    TITLE "0:"
    INDEX 01 02:23:48
  TRACK 81 AUDIO
    TITLE "7:cjc019_1000"
    INDEX 01 02:24:36
  TRACK 82 AUDIO
    TITLE "0:"
    INDEX 01 02:29:33
  TRACK 83 AUDIO
    TITLE "8:cjc019_1001"
    INDEX 01 02:30:11
  TRACK 84 AUDIO
    TITLE "0:"
    INDEX 01 02:34:56
